<?xml version="1.0" encoding="UTF-8"?>
<svg id="Layer_1" xmlns="http://www.w3.org/2000/svg" version="1.1" viewBox="0 0 1080 1080">
  <!-- Generator: Adobe Illustrator 29.3.0, SVG Export Plug-In . SVG Version: 2.1.0 Build 146)  -->
  <defs>
    <style>
      .st0 {
        fill: #0059db;
      }

      .st1 {
        fill: #1a1a1a;
      }

      .st2 {
        fill: #004ac1;
      }
    </style>
  </defs>
  <g>
    <path class="st2" d="M483.9,473.4h-20.1c-12.3,0-21.3-11.6-18.2-23.6l71.2-269.5c7.4-28.3-13.9-55.9-43.1-55.9h-207.1c-29.8,0-51.2,28.7-42.8,57.3l121.9,411.3c5.6,18.9,23,31.9,42.8,31.9h55.7l39.9-151.6h0Z"/>
    <path class="st0" d="M568.7,157.6l-35.6,131.4c-3.3,12.5,2.8,25.7,14.5,31.1l61.4,28.6c19.4,9,20.9,36,2.6,47.1l-127.8,77.6-39.9,151.6h248.5c19.8,0,37.2-13,42.8-31.9l121.9-411.3c8.5-28.6-13-57.3-42.8-57.3h-202.6c-20.2,0-37.9,13.6-43.1,33.1h0Z"/>
  </g>
  <g>
    <path class="st1" d="M207.3,926l40.6-116.9h31.5l-54.7,143.4h-35.4l-54.4-143.4h31.8l40.6,116.9h0Z"/>
    <path class="st1" d="M331.5,760v192.6h-29.7v-192.6h29.7Z"/>
    <path class="st1" d="M369.6,842c6-11.1,14.1-19.7,24.5-25.9,10.3-6.2,21.7-9.2,34.2-9.2s21.1,2.2,29.5,6.6,15.1,9.9,20.2,16.5v-20.8h29.9v143.4h-29.9v-21.3c-5,6.8-11.9,12.4-20.6,16.9-8.7,4.5-18.6,6.8-29.7,6.8s-23.6-3.2-33.8-9.5c-10.2-6.3-18.4-15.2-24.3-26.5-6-11.4-9-24.2-9-38.7s3-27.2,9-38.3h0ZM471.9,855c-4.1-7.3-9.4-12.8-16-16.7-6.6-3.8-13.7-5.7-21.3-5.7s-14.8,1.9-21.3,5.6c-6.6,3.7-11.9,9.2-16,16.4-4.1,7.2-6.1,15.8-6.1,25.6s2,18.6,6.1,26,9.5,13.1,16.1,17c6.7,3.9,13.8,5.9,21.2,5.9s14.8-1.9,21.3-5.7c6.6-3.8,11.9-9.4,16-16.8,4.1-7.4,6.1-16,6.1-25.9s-2-18.5-6.1-25.8h0Z"/>
    <path class="st1" d="M649.7,813.8c8.9,4.7,15.9,11.6,21,20.8,5,9.2,7.5,20.3,7.5,33.3v84.6h-29.4v-80.2c0-12.8-3.2-22.7-9.6-29.5s-15.2-10.3-26.3-10.3-19.9,3.4-26.4,10.3c-6.5,6.9-9.8,16.7-9.8,29.5v80.2h-29.7v-143.4h29.7v16.4c4.9-5.9,11.1-10.5,18.6-13.8,7.5-3.3,15.6-5,24.1-5s21.4,2.3,30.3,7h0Z"/>
    <path class="st1" d="M846.3,891.9h-109.6c.9,11.5,5.1,20.7,12.8,27.6,7.6,6.9,17,10.4,28.1,10.4,16,0,27.2-6.7,33.8-20h32c-4.3,13.2-12.2,24-23.6,32.4s-25.5,12.6-42.3,12.6-26-3.1-36.8-9.2c-10.8-6.2-19.3-14.8-25.5-26-6.2-11.2-9.2-24.2-9.2-38.9s3-27.7,9-38.9,14.4-19.8,25.2-25.9c10.8-6.1,23.3-9.1,37.3-9.1s25.6,3,36.2,8.8c10.6,5.9,18.8,14.2,24.7,24.9,5.9,10.7,8.8,23,8.8,36.8s-.3,10.2-1,14.6h0ZM816.4,868c-.2-10.9-4.1-19.7-11.7-26.3-7.6-6.6-17.1-9.9-28.4-9.9s-19,3.2-26.3,9.8-11.6,15.3-13,26.4h79.4Z"/>
    <path class="st1" d="M911.1,833.4v79.4c0,5.4,1.3,9.2,3.8,11.6,2.5,2.3,6.8,3.5,12.9,3.5h18.2v24.7h-23.4c-13.4,0-23.6-3.1-30.7-9.4-7.1-6.2-10.7-16.4-10.7-30.5v-79.4h-16.9v-24.2h16.9v-35.7h29.9v35.7h34.9v24.2h-34.9Z"/>
  </g>
</svg>