<?xml version="1.0" encoding="UTF-8"?>
<svg id="Layer_1" xmlns="http://www.w3.org/2000/svg" version="1.1" viewBox="0 0 1080 1080">
  <!-- Generator: Adobe Illustrator 29.3.0, SVG Export Plug-In . SVG Version: 2.1.0 Build 146)  -->
  <defs>
    <style>
      .st0 {
        fill: #0059db;
      }

      .st1 {
        fill: #1a1a1a;
      }

      .st2 {
        fill: #004ac1;
      }
    </style>
  </defs>
  <g>
    <path class="st2" d="M483.94,473.42h-20.12c-12.32,0-21.32-11.65-18.19-23.57l71.2-269.45c7.41-28.27-13.93-55.91-43.15-55.91h-207.12c-29.82,0-51.24,28.69-42.77,57.28l121.86,411.28c5.61,18.94,23.02,31.94,42.77,31.94h55.67l39.86-151.56Z"/>
    <path class="st0" d="M568.71,157.6l-35.59,131.39c-3.34,12.54,2.79,25.66,14.55,31.14l61.43,28.6c19.38,9.02,20.87,36.01,2.59,47.11l-127.76,77.58-39.86,151.56h248.45c19.76,0,37.16-12.99,42.77-31.94l121.86-411.28c8.47-28.59-12.95-57.28-42.77-57.28h-202.57c-20.21,0-37.9,13.59-43.1,33.12Z"/>
  </g>
  <g>
    <path class="st1" d="M207.3,926.03l40.61-116.87h31.5l-54.66,143.42h-35.4l-54.4-143.42h31.76l40.61,116.87Z"/>
    <path class="st1" d="M331.46,759.97v192.62h-29.67v-192.62h29.67Z"/>
    <path class="st1" d="M369.59,841.96c5.99-11.1,14.14-19.74,24.47-25.9,10.32-6.16,21.73-9.24,34.23-9.24,11.28,0,21.12,2.21,29.54,6.64,8.42,4.43,15.14,9.94,20.17,16.53v-20.82h29.93v143.42h-29.93v-21.34c-5.03,6.77-11.89,12.41-20.56,16.92-8.68,4.51-18.57,6.77-29.67,6.77-12.32,0-23.6-3.16-33.84-9.5-10.24-6.33-18.35-15.18-24.34-26.55-5.99-11.36-8.98-24.25-8.98-38.65s2.99-27.16,8.98-38.26ZM471.88,854.97c-4.08-7.29-9.42-12.84-16.01-16.66-6.6-3.82-13.71-5.73-21.34-5.73s-14.75,1.87-21.34,5.6c-6.6,3.73-11.93,9.2-16.01,16.4-4.08,7.2-6.12,15.75-6.12,25.64s2.04,18.57,6.12,26.03c4.08,7.46,9.46,13.14,16.14,17.05,6.68,3.9,13.75,5.86,21.21,5.86s14.75-1.91,21.34-5.73c6.59-3.81,11.93-9.41,16.01-16.79,4.08-7.37,6.12-16.01,6.12-25.9s-2.04-18.48-6.12-25.77Z"/>
    <path class="st1" d="M649.66,813.85c8.93,4.69,15.92,11.63,20.95,20.82,5.03,9.2,7.55,20.3,7.55,33.32v84.59h-29.41v-80.17c0-12.84-3.21-22.69-9.63-29.54-6.42-6.85-15.19-10.28-26.29-10.28s-19.91,3.43-26.42,10.28c-6.51,6.86-9.76,16.7-9.76,29.54v80.17h-29.67v-143.42h29.67v16.4c4.86-5.9,11.06-10.5,18.61-13.8,7.55-3.29,15.57-4.95,24.08-4.95,11.28,0,21.38,2.34,30.32,7.03Z"/>
    <path class="st1" d="M846.31,891.93h-109.58c.87,11.45,5.12,20.65,12.76,27.59,7.63,6.94,17,10.41,28.11,10.41,15.96,0,27.24-6.68,33.84-20.04h32.02c-4.34,13.19-12.19,23.99-23.56,32.41-11.37,8.42-25.47,12.62-42.3,12.62-13.71,0-25.99-3.08-36.83-9.24-10.85-6.16-19.35-14.84-25.51-26.03-6.16-11.19-9.24-24.16-9.24-38.91s2.99-27.72,8.98-38.91c5.99-11.19,14.4-19.82,25.25-25.9,10.84-6.07,23.3-9.11,37.35-9.11s25.59,2.95,36.18,8.85c10.58,5.9,18.83,14.19,24.73,24.86,5.9,10.67,8.85,22.95,8.85,36.83,0,5.38-.35,10.24-1.04,14.58ZM816.38,867.99c-.18-10.93-4.08-19.69-11.71-26.29-7.64-6.59-17.09-9.89-28.37-9.89-10.24,0-19,3.25-26.29,9.76-7.29,6.51-11.63,15.32-13.02,26.42h79.39Z"/>
    <path class="st1" d="M911.12,833.37v79.39c0,5.38,1.26,9.24,3.78,11.58,2.51,2.34,6.81,3.51,12.88,3.51h18.22v24.73h-23.43c-13.36,0-23.6-3.12-30.71-9.37-7.12-6.25-10.67-16.4-10.67-30.45v-79.39h-16.92v-24.21h16.92v-35.66h29.93v35.66h34.88v24.21h-34.88Z"/>
  </g>
</svg>